<?xml version="1.0" encoding="UTF-8"?>
<svg xmlns="http://www.w3.org/2000/svg" width="63" height="32" viewBox="0 0 63 32" fill="none">
  <path fill-rule="evenodd" clip-rule="evenodd" d="M27.3801 23.3764C26.6318 25.0351 26.2736 25.7753 25.3103 27.2412C23.9656 29.2883 22.0711 31.8369 19.7235 31.8583C17.6369 31.8775 17.1013 30.5003 14.2701 30.516C11.4389 30.5314 10.8476 31.8824 8.76081 31.8634C6.41305 31.8417 4.61766 29.54 3.27316 27.4938C-0.486327 21.771 -0.879099 15.0548 1.43912 11.4845C3.08709 8.94701 5.68581 7.46164 8.13022 7.46164C10.6186 7.46164 12.183 8.82643 14.2404 8.82643C16.2361 8.82643 17.4527 7.45947 20.3294 7.45947C22.504 7.45947 24.8082 8.64327 26.4502 10.6914C21.071 13.6391 21.9445 21.3225 27.3801 23.3764Z" fill="#8A8A8A"></path>
  <path fill-rule="evenodd" clip-rule="evenodd" d="M18.147 5.17305C19.1915 3.83156 19.986 1.93624 19.6979 0C17.9909 0.117594 15.993 1.20385 14.8267 2.62012C13.7682 3.90607 12.8945 5.81304 13.2348 7.6661C15.0987 7.72381 17.0271 6.61046 18.147 5.17305Z" fill="#8A8A8A"></path>
  <path fill-rule="evenodd" clip-rule="evenodd" d="M56.4083 14.0218L40.5918 4.92188L53.0853 17.3508L56.4083 14.0218Z" fill="#8A8A8A"></path>
  <path fill-rule="evenodd" clip-rule="evenodd" d="M38.9018 5.01562C38.8415 5.12527 38.5527 5.25188 38.5527 5.39142V31.1419C38.5527 31.2227 38.8178 31.2989 38.8394 31.3704L52.0702 18.1159L38.9018 5.01562Z" fill="#8A8A8A"></path>
  <path fill-rule="evenodd" clip-rule="evenodd" d="M53.0877 18.877L40.1162 31.8716C40.1541 31.857 40.1917 31.84 40.2286 31.8188L56.6181 22.3892L53.0877 18.877Z" fill="#8A8A8A"></path>
  <path fill-rule="evenodd" clip-rule="evenodd" d="M62.6078 17.5879L57.3782 14.5791L53.8516 18.112L57.5892 21.8304L62.6078 18.943C63.1303 18.6424 63.1303 17.8885 62.6078 17.5879Z" fill="#8A8A8A"></path>
</svg>
