<?xml version="1.0" encoding="UTF-8"?>
<svg xmlns="http://www.w3.org/2000/svg" width="102" height="102" viewBox="0 0 102 102" fill="none">
  <path d="M0 0V4.07456H28.2673V0H0Z" fill="black"></path>
  <path d="M44.4814 0V4.07456H60.6099V0H44.4814Z" fill="black"></path>
  <path d="M72.748 0V4.07456H101.1V0H72.748Z" fill="black"></path>
  <path d="M0 4.07471V8.06438H4.07456V4.07471H0Z" fill="black"></path>
  <path d="M24.2773 4.07471V8.06438H28.267V4.07471H24.2773Z" fill="black"></path>
  <path d="M36.417 4.07471V8.06438H44.4812V4.07471H36.417Z" fill="black"></path>
  <path d="M52.5459 4.07471V8.06438H56.6205V4.07471H52.5459Z" fill="black"></path>
  <path d="M72.748 4.07471V8.06438H76.8226V4.07471H72.748Z" fill="black"></path>
  <path d="M97.0254 4.07471V8.06438H101.1V4.07471H97.0254Z" fill="black"></path>
  <path d="M0 8.06445V12.139H4.07456V8.06445H0Z" fill="black"></path>
  <path d="M8.06445 8.06445V12.139H20.2032V8.06445H8.06445Z" fill="black"></path>
  <path d="M24.2773 8.06445V12.139H28.267V8.06445H24.2773Z" fill="black"></path>
  <path d="M48.4697 8.06445V12.139H52.5443V8.06445H48.4697Z" fill="black"></path>
  <path d="M60.6094 8.06445V12.139H68.7585V8.06445H60.6094Z" fill="black"></path>
  <path d="M72.748 8.06445V12.139H76.8226V8.06445H72.748Z" fill="black"></path>
  <path d="M80.8125 8.06445V12.139H92.9513V8.06445H80.8125Z" fill="black"></path>
  <path d="M97.0254 8.06445V12.139H101.1V8.06445H97.0254Z" fill="black"></path>
  <path d="M0 12.1387V16.1283H4.07456V12.1387H0Z" fill="black"></path>
  <path d="M8.06445 12.1387V16.1283H20.2032V12.1387H8.06445Z" fill="black"></path>
  <path d="M24.2773 12.1387V16.1283H28.267V12.1387H24.2773Z" fill="black"></path>
  <path d="M32.3418 12.1387V16.1283H36.4164V12.1387H32.3418Z" fill="black"></path>
  <path d="M48.4697 12.1387V16.1283H60.6085V12.1387H48.4697Z" fill="black"></path>
  <path d="M72.748 12.1387V16.1283H76.8226V12.1387H72.748Z" fill="black"></path>
  <path d="M80.8125 12.1387V16.1283H92.9513V12.1387H80.8125Z" fill="black"></path>
  <path d="M97.0254 12.1387V16.1283H101.1V12.1387H97.0254Z" fill="black"></path>
  <path d="M0 16.1284V20.203H4.07456V16.1284H0Z" fill="black"></path>
  <path d="M8.06445 16.1284V20.203H20.2032V16.1284H8.06445Z" fill="black"></path>
  <path d="M24.2773 16.1284V20.203H28.267V16.1284H24.2773Z" fill="black"></path>
  <path d="M32.3418 16.1284V20.203H40.406V16.1284H32.3418Z" fill="black"></path>
  <path d="M56.6191 16.1284V20.203H60.6088V16.1284H56.6191Z" fill="black"></path>
  <path d="M64.6836 16.1284V20.203H68.7582V16.1284H64.6836Z" fill="black"></path>
  <path d="M72.748 16.1284V20.203H76.8226V16.1284H72.748Z" fill="black"></path>
  <path d="M80.8125 16.1284V20.203H92.9513V16.1284H80.8125Z" fill="black"></path>
  <path d="M97.0254 16.1284V20.203H101.1V16.1284H97.0254Z" fill="black"></path>
  <path d="M0 20.2026V24.2772H4.07456V20.2026H0Z" fill="black"></path>
  <path d="M24.2773 20.2026V24.2772H28.267V20.2026H24.2773Z" fill="black"></path>
  <path d="M44.4814 20.2026V24.2772H56.6202V20.2026H44.4814Z" fill="black"></path>
  <path d="M64.6836 20.2026V24.2772H68.7582V20.2026H64.6836Z" fill="black"></path>
  <path d="M72.748 20.2026V24.2772H76.8226V20.2026H72.748Z" fill="black"></path>
  <path d="M97.0254 20.2026V24.2772H101.1V20.2026H97.0254Z" fill="black"></path>
  <path d="M0 24.2773V28.267H28.2673V24.2773H0Z" fill="black"></path>
  <path d="M32.3418 24.2773V28.267H36.4164V24.2773H32.3418Z" fill="black"></path>
  <path d="M40.4053 24.2773V28.267H44.4798V24.2773H40.4053Z" fill="black"></path>
  <path d="M48.4697 24.2773V28.267H52.5443V24.2773H48.4697Z" fill="black"></path>
  <path d="M56.6191 24.2773V28.267H60.6088V24.2773H56.6191Z" fill="black"></path>
  <path d="M64.6836 24.2773V28.267H68.7582V24.2773H64.6836Z" fill="black"></path>
  <path d="M72.748 24.2773V28.267H101.1V24.2773H72.748Z" fill="black"></path>
  <path d="M40.4053 28.2671V32.3416H48.4695V28.2671H40.4053Z" fill="black"></path>
  <path d="M56.6191 28.2671V32.3416H60.6088V28.2671H56.6191Z" fill="black"></path>
  <path d="M0 32.3418V36.4164H8.06423V32.3418H0Z" fill="black"></path>
  <path d="M20.2021 32.3418V36.4164H32.3409V32.3418H20.2021Z" fill="black"></path>
  <path d="M36.417 32.3418V36.4164H40.4067V32.3418H36.417Z" fill="black"></path>
  <path d="M44.4814 32.3418V36.4164H48.4711V32.3418H44.4814Z" fill="black"></path>
  <path d="M52.5459 32.3418V36.4164H56.6205V32.3418H52.5459Z" fill="black"></path>
  <path d="M60.6094 32.3418V36.4164H64.6839V32.3418H60.6094Z" fill="black"></path>
  <path d="M80.8125 32.3418V36.4164H88.9616V32.3418H80.8125Z" fill="black"></path>
  <path d="M12.1387 36.4165V40.4062H24.2775V36.4165H12.1387Z" fill="black"></path>
  <path d="M28.2666 36.4165V40.4062H32.3412V36.4165H28.2666Z" fill="black"></path>
  <path d="M36.417 36.4165V40.4062H40.4067V36.4165H36.417Z" fill="black"></path>
  <path d="M48.4697 36.4165V40.4062H52.5443V36.4165H48.4697Z" fill="black"></path>
  <path d="M60.6094 36.4165V40.4062H64.6839V36.4165H60.6094Z" fill="black"></path>
  <path d="M68.7578 36.4165V40.4062H72.7475V36.4165H68.7578Z" fill="black"></path>
  <path d="M76.8223 36.4165V40.4062H97.0253V36.4165H76.8223Z" fill="black"></path>
  <path d="M8.06445 40.4062V44.4808H12.139V40.4062H8.06445Z" fill="black"></path>
  <path d="M20.2021 40.4062V44.4808H32.3409V40.4062H20.2021Z" fill="black"></path>
  <path d="M40.4053 40.4062V44.4808H44.4798V40.4062H40.4053Z" fill="black"></path>
  <path d="M52.5459 40.4062V44.4808H80.8131V40.4062H52.5459Z" fill="black"></path>
  <path d="M84.8867 40.4062V44.4808H88.9613V40.4062H84.8867Z" fill="black"></path>
  <path d="M92.9502 40.4062V44.4808H101.099V40.4062H92.9502Z" fill="black"></path>
  <path d="M0 44.4805V48.4701H4.07456V44.4805H0Z" fill="black"></path>
  <path d="M8.06445 44.4805V48.4701H12.139V44.4805H8.06445Z" fill="black"></path>
  <path d="M20.2021 44.4805V48.4701H24.2767V44.4805H20.2021Z" fill="black"></path>
  <path d="M36.417 44.4805V48.4701H40.4067V44.4805H36.417Z" fill="black"></path>
  <path d="M48.4697 44.4805V48.4701H52.5443V44.4805H48.4697Z" fill="black"></path>
  <path d="M60.6094 44.4805V48.4701H68.7585V44.4805H60.6094Z" fill="black"></path>
  <path d="M72.748 44.4805V48.4701H76.8226V44.4805H72.748Z" fill="black"></path>
  <path d="M84.8867 44.4805V48.4701H88.9613V44.4805H84.8867Z" fill="black"></path>
  <path d="M97.0254 44.4805V48.4701H101.1V44.4805H97.0254Z" fill="black"></path>
  <path d="M4.07422 48.4707V52.5453H8.06389V48.4707H4.07422Z" fill="black"></path>
  <path d="M16.1289 48.4707V52.5453H20.2035V48.4707H16.1289Z" fill="black"></path>
  <path d="M24.2773 48.4707V52.5453H28.267V48.4707H24.2773Z" fill="black"></path>
  <path d="M32.3418 48.4707V52.5453H40.406V48.4707H32.3418Z" fill="black"></path>
  <path d="M44.4814 48.4707V52.5453H52.5457V48.4707H44.4814Z" fill="black"></path>
  <path d="M56.6191 48.4707V52.5453H60.6088V48.4707H56.6191Z" fill="black"></path>
  <path d="M64.6836 48.4707V52.5453H68.7582V48.4707H64.6836Z" fill="black"></path>
  <path d="M72.748 48.4707V52.5453H80.8123V48.4707H72.748Z" fill="black"></path>
  <path d="M97.0254 48.4707V52.5453H101.1V48.4707H97.0254Z" fill="black"></path>
  <path d="M0 52.5449V56.6195H12.1388V52.5449H0Z" fill="black"></path>
  <path d="M16.1289 52.5449V56.6195H20.2035V52.5449H16.1289Z" fill="black"></path>
  <path d="M56.6191 52.5449V56.6195H64.6834V52.5449H56.6191Z" fill="black"></path>
  <path d="M76.8223 52.5449V56.6195H80.8119V52.5449H76.8223Z" fill="black"></path>
  <path d="M92.9502 52.5449V56.6195H97.0248V52.5449H92.9502Z" fill="black"></path>
  <path d="M0 56.6196V60.6093H4.07456V56.6196H0Z" fill="black"></path>
  <path d="M20.2021 56.6196V60.6093H32.3409V56.6196H20.2021Z" fill="black"></path>
  <path d="M36.417 56.6196V60.6093H40.4067V56.6196H36.417Z" fill="black"></path>
  <path d="M44.4814 56.6196V60.6093H52.5457V56.6196H44.4814Z" fill="black"></path>
  <path d="M60.6094 56.6196V60.6093H64.6839V56.6196H60.6094Z" fill="black"></path>
  <path d="M72.748 56.6196V60.6093H88.9614V56.6196H72.748Z" fill="black"></path>
  <path d="M92.9502 56.6196V60.6093H101.099V56.6196H92.9502Z" fill="black"></path>
  <path d="M0 60.6089V64.6834H4.07456V60.6089H0Z" fill="black"></path>
  <path d="M20.2021 60.6089V64.6834H24.2767V60.6089H20.2021Z" fill="black"></path>
  <path d="M40.4053 60.6089V64.6834H48.4695V60.6089H40.4053Z" fill="black"></path>
  <path d="M56.6191 60.6089V64.6834H68.7579V60.6089H56.6191Z" fill="black"></path>
  <path d="M76.8223 60.6089V64.6834H80.8119V60.6089H76.8223Z" fill="black"></path>
  <path d="M84.8867 60.6089V64.6834H92.951V60.6089H84.8867Z" fill="black"></path>
  <path d="M97.0254 60.6089V64.6834H101.1V60.6089H97.0254Z" fill="black"></path>
  <path d="M0 64.6836V68.7582H4.07456V64.6836H0Z" fill="black"></path>
  <path d="M8.06445 64.6836V68.7582H32.342V64.6836H8.06445Z" fill="black"></path>
  <path d="M36.417 64.6836V68.7582H48.4709V64.6836H36.417Z" fill="black"></path>
  <path d="M64.6836 64.6836V68.7582H84.8866V64.6836H64.6836Z" fill="black"></path>
  <path d="M88.9609 64.6836V68.7582H92.9506V64.6836H88.9609Z" fill="black"></path>
  <path d="M32.3418 68.7583V72.748H40.406V68.7583H32.3418Z" fill="black"></path>
  <path d="M48.4697 68.7583V72.748H56.6188V68.7583H48.4697Z" fill="black"></path>
  <path d="M60.6094 68.7583V72.748H68.7585V68.7583H60.6094Z" fill="black"></path>
  <path d="M80.8125 68.7583V72.748H84.8871V68.7583H80.8125Z" fill="black"></path>
  <path d="M0 72.748V76.8226H28.2673V72.748H0Z" fill="black"></path>
  <path d="M32.3418 72.748V76.8226H36.4164V72.748H32.3418Z" fill="black"></path>
  <path d="M40.4053 72.748V76.8226H48.4695V72.748H40.4053Z" fill="black"></path>
  <path d="M56.6191 72.748V76.8226H60.6088V72.748H56.6191Z" fill="black"></path>
  <path d="M64.6836 72.748V76.8226H68.7582V72.748H64.6836Z" fill="black"></path>
  <path d="M72.748 72.748V76.8226H76.8226V72.748H72.748Z" fill="black"></path>
  <path d="M80.8125 72.748V76.8226H84.8871V72.748H80.8125Z" fill="black"></path>
  <path d="M97.0254 72.748V76.8226H101.1V72.748H97.0254Z" fill="black"></path>
  <path d="M0 76.8228V80.8124H4.07456V76.8228H0Z" fill="black"></path>
  <path d="M24.2773 76.8228V80.8124H28.267V76.8228H24.2773Z" fill="black"></path>
  <path d="M32.3418 76.8228V80.8124H36.4164V76.8228H32.3418Z" fill="black"></path>
  <path d="M40.4053 76.8228V80.8124H44.4798V76.8228H40.4053Z" fill="black"></path>
  <path d="M48.4697 76.8228V80.8124H52.5443V76.8228H48.4697Z" fill="black"></path>
  <path d="M60.6094 76.8228V80.8124H68.7585V76.8228H60.6094Z" fill="black"></path>
  <path d="M80.8125 76.8228V80.8124H84.8871V76.8228H80.8125Z" fill="black"></path>
  <path d="M92.9502 76.8228V80.8124H97.0248V76.8228H92.9502Z" fill="black"></path>
  <path d="M0 80.8125V84.8871H4.07456V80.8125H0Z" fill="black"></path>
  <path d="M8.06445 80.8125V84.8871H20.2032V80.8125H8.06445Z" fill="black"></path>
  <path d="M24.2773 80.8125V84.8871H28.267V80.8125H24.2773Z" fill="black"></path>
  <path d="M36.417 80.8125V84.8871H40.4067V80.8125H36.417Z" fill="black"></path>
  <path d="M48.4697 80.8125V84.8871H52.5443V80.8125H48.4697Z" fill="black"></path>
  <path d="M60.6094 80.8125V84.8871H84.887V80.8125H60.6094Z" fill="black"></path>
  <path d="M88.9609 80.8125V84.8871H101.1V80.8125H88.9609Z" fill="black"></path>
  <path d="M0 84.8867V88.9613H4.07456V84.8867H0Z" fill="black"></path>
  <path d="M8.06445 84.8867V88.9613H20.2032V84.8867H8.06445Z" fill="black"></path>
  <path d="M24.2773 84.8867V88.9613H28.267V84.8867H24.2773Z" fill="black"></path>
  <path d="M36.417 84.8867V88.9613H40.4067V84.8867H36.417Z" fill="black"></path>
  <path d="M52.5459 84.8867V88.9613H68.7592V84.8867H52.5459Z" fill="black"></path>
  <path d="M72.748 84.8867V88.9613H76.8226V84.8867H72.748Z" fill="black"></path>
  <path d="M92.9502 84.8867V88.9613H101.099V84.8867H92.9502Z" fill="black"></path>
  <path d="M0 88.9609V92.9506H4.07456V88.9609H0Z" fill="black"></path>
  <path d="M8.06445 88.9609V92.9506H20.2032V88.9609H8.06445Z" fill="black"></path>
  <path d="M24.2773 88.9609V92.9506H28.267V88.9609H24.2773Z" fill="black"></path>
  <path d="M40.4053 88.9609V92.9506H56.6186V88.9609H40.4053Z" fill="black"></path>
  <path d="M60.6094 88.9609V92.9506H64.6839V88.9609H60.6094Z" fill="black"></path>
  <path d="M84.8867 88.9609V92.9506H92.951V88.9609H84.8867Z" fill="black"></path>
  <path d="M97.0254 88.9609V92.9506H101.1V88.9609H97.0254Z" fill="black"></path>
  <path d="M0 92.9507V97.0252H4.07456V92.9507H0Z" fill="black"></path>
  <path d="M24.2773 92.9507V97.0252H28.267V92.9507H24.2773Z" fill="black"></path>
  <path d="M32.3418 92.9507V97.0252H40.406V92.9507H32.3418Z" fill="black"></path>
  <path d="M44.4814 92.9507V97.0252H48.4711V92.9507H44.4814Z" fill="black"></path>
  <path d="M64.6836 92.9507V97.0252H72.7478V92.9507H64.6836Z" fill="black"></path>
  <path d="M76.8223 92.9507V97.0252H84.8865V92.9507H76.8223Z" fill="black"></path>
  <path d="M97.0254 92.9507V97.0252H101.1V92.9507H97.0254Z" fill="black"></path>
  <path d="M0 97.0254V101.1H28.2673V97.0254H0Z" fill="black"></path>
  <path d="M32.3418 97.0254V101.1H40.406V97.0254H32.3418Z" fill="black"></path>
  <path d="M48.4697 97.0254V101.1H60.6085V97.0254H48.4697Z" fill="black"></path>
  <path d="M64.6836 97.0254V101.1H72.7478V97.0254H64.6836Z" fill="black"></path>
  <path d="M84.8867 97.0254V101.1H88.9613V97.0254H84.8867Z" fill="black"></path>
  <path d="M97.0254 97.0254V101.1H101.1V97.0254H97.0254Z" fill="black"></path>
</svg>
